<svg xmlns="http://www.w3.org/2000/svg" width="65.254" height="65.303" viewBox="0 0 65.254 65.303">
    <defs>
        <style>
            .cls-2{fill:#fc2e34}
        </style>
    </defs>
    <g id="Group_148" transform="translate(-26 -1225)">
        <g id="Group_147" transform="translate(26 1225)">
            <path id="Path_7" fill="#3d3d3d" d="M115.655 301.911a10.207 10.207 0 0 1 4.515-5.769 7.79 7.79 0 0 1-2.782-6.721 7.557 7.557 0 0 1 2.654-5.168 7.783 7.783 0 0 1 10.583.372 7.875 7.875 0 0 1-.5 11.523 10.038 10.038 0 0 1 4.818 7.514l1.795-1.317a7.766 7.766 0 0 1-2.755-6.738 7.554 7.554 0 0 1 2.629-5.114 7.749 7.749 0 0 1 10.486.249 7.527 7.527 0 0 1 2.385 5.877 7.755 7.755 0 0 1-2.781 5.717l1.781 1.324a10.077 10.077 0 0 1 4.856-7.516 7.8 7.8 0 0 1-2.735-7 7.531 7.531 0 0 1 2.831-5.072 7.8 7.8 0 0 1 9.984 11.982 26.15 26.15 0 0 1 2.6 2.552 26.145 26.145 0 0 1 1.856 3.141 27.769 27.769 0 0 0 2.606-7 29.471 29.471 0 0 0-12.606-31.425c-1.142-.76-1.435-1.607-.849-2.458.571-.829 1.442-.891 2.554-.141a31.877 31.877 0 0 1 14.4 22.543 32.4 32.4 0 0 1-25.6 36.727 32.632 32.632 0 0 1-39.254-33.214c.492-11.231 5.641-20 15.021-26.245a1.556 1.556 0 1 1 1.707 2.587 29.55 29.55 0 0 0-13.581 27.245 28.889 28.889 0 0 0 3 10.843c.098.191.205.373.382.702zm35.953 13.967c.272-.094.516-.168.752-.261a30.448 30.448 0 0 0 11.562-8.065 4.04 4.04 0 0 0 1.137-3.179 6.826 6.826 0 0 0-6.727-6.464 6.706 6.706 0 0 0-6.746 6.477c-.062 3.731-.018 7.465-.019 11.2a2.518 2.518 0 0 0 .041.292zm-19.756.012c0-3.974.113-7.86-.039-11.736a6.2 6.2 0 0 0-4.171-5.733 6.409 6.409 0 0 0-6.994 1.214 6.873 6.873 0 0 0-2.245 6.006 1.743 1.743 0 0 0 .328.925 29.377 29.377 0 0 0 13.12 9.324zm16.59.924c0-2.172.064-4.268-.015-6.359a6.712 6.712 0 0 0-6.316-6.314 6.544 6.544 0 0 0-6.975 5.6 67.623 67.623 0 0 0-.047 7.1 28.821 28.821 0 0 0 13.353-.027zm-27.976-26.706a4.663 4.663 0 1 0 4.667-4.643 4.681 4.681 0 0 0-4.667 4.643zm37.823 4.684a4.664 4.664 0 1 0-4.649-4.727 4.663 4.663 0 0 0 4.648 4.727zm-21.236 1.552a4.662 4.662 0 1 0 4.652-4.658 4.677 4.677 0 0 0-4.652 4.659z" transform="translate(-109.091 -255.45)"/>
            <path id="Path_8" d="M226.122 232.83a14.963 14.963 0 1 1-14.881 14.976 14.935 14.935 0 0 1 14.881-14.976zm-4.031 8.183a5.7 5.7 0 0 0-5.826 5.855 7.851 7.851 0 0 0 2.289 5.067 19.441 19.441 0 0 0 7.03 4.613 2.047 2.047 0 0 0 1.478-.106 32.149 32.149 0 0 0 3.535-1.879 12.121 12.121 0 0 0 4.907-5.105 5.958 5.958 0 0 0-1.192-6.909 6.276 6.276 0 0 0-7.562-.586.917.917 0 0 1-1.108.01 6.214 6.214 0 0 0-3.551-.96z" class="cls-2" transform="translate(-193.56 -232.83)"/>
            <path id="Path_9" d="M261.591 298.724a4.056 4.056 0 0 1 2.828 1.136c1.008 1.018 1.784 1 2.821.014a3.507 3.507 0 0 1 3.113-1.073 2.417 2.417 0 0 1 1.933 3.435 7.8 7.8 0 0 1-1.614 2.37 14.961 14.961 0 0 1-4.5 2.985.787.787 0 0 1-.6.026 15.623 15.623 0 0 1-5.367-3.852 3.515 3.515 0 0 1-.942-3.089 2.466 2.466 0 0 1 2.328-1.952z" class="cls-2" transform="translate(-233.205 -287.319)"/>
        </g>
    </g>
</svg>
